# xmcd CD database file
#
# Track frame offsets:
#	150
#	11512
#	24625
#	36085
#	47652
#	60150
#	70690
#	86415
#	97482
#	107132
#	117170
#	127927
#	139360
#	151770
#	164715
#	177052
#	191785
#	202080
#	212737
#	223820
#
# Disc length: 3171 seconds
#
# Revision: 3
# Processed by: cddbd v1.5.2PL0 Copyright (c) Steve Scherf et al.
# Submitted via: CDex 1.81
#
DISCID=210c6114
DTITLE=Various Artist - Country Love (Volume 1)
DYEAR=2000
DGENRE=Country
TTITLE0=Just Out Of Reach (Patsy Cline)
TTITLE1=Ruby Don't Take Your Love To Town (Kenny Rogers)
TTITLE2=There She Goes (Jerry Wallace)
TTITLE3=Broken Heart (Conway Twitty)
TTITLE4=Shelter Of Your Arms (Willie Nelson)
TTITLE5=Kid Stuff (Barbara Fairchild)
TTITLE6=Your Cheatin' Heart (Bailey)
TTITLE7=All That Keeps Me Alive (Donna Fargo)
TTITLE8=The Girl Most Likely (Jeannie C. Riley)
TTITLE9=I Can't Stop Loving You (Kitty Wells)
TTITLE10=Please Help Me I'm Falling (Hank Locklin)
TTITLE11=Box Of Memories (Jeannie C. Riley)
TTITLE12=I Saw The Light (Hank Williams)
TTITLE13=He's On The Run Again (Billie Jo Spears)
TTITLE14=Wasted Days And Wasted Nights (Freddy Fender)
TTITLE15=Faithless Love (Lynn Anderson)
TTITLE16=There You Go (Johnny Cash)
TTITLE17=Burning Memories (Waylon Jennings)
TTITLE18=Stop The World (Patsy Cline)
TTITLE19=Angel In The Morning (Rita Remington)
EXTD=YEAR: 2000
EXTT0=
EXTT1=
EXTT2=
EXTT3=
EXTT4=
EXTT5=
EXTT6=
EXTT7=
EXTT8=
EXTT9=
EXTT10=
EXTT11=
EXTT12=
EXTT13=
EXTT14=
EXTT15=
EXTT16=
EXTT17=
EXTT18=
EXTT19=
PLAYORDER=
